<svg width="30" height="30" viewBox="0 0 30 30" fill="none" xmlns="http://www.w3.org/2000/svg">
<path d="M8.37369 21.6035C5.6599 20.1788 3.2175 17.8947 1.25 15C4.71007 9.88902 9.59489 6.70032 14.9773 6.70032C17.3066 6.70032 19.5454 7.2883 21.6034 8.37382" stroke="white" stroke-width="2.5" stroke-linecap="round" stroke-linejoin="round"/>
<path d="M24.8376 10.5675C26.2624 11.7887 27.574 13.2813 28.75 14.9774C25.2672 20.0884 20.3825 23.2544 15.0001 23.2544C14.0955 23.2544 13.191 23.164 12.309 22.983" stroke="white" stroke-width="2.5" stroke-linecap="round" stroke-linejoin="round"/>
<path d="M18.1892 16.1307C17.8274 17.1484 16.9906 17.94 15.9277 18.2565" stroke="white" stroke-width="2.5" stroke-linecap="round" stroke-linejoin="round"/>
<path d="M12.6028 17.3972C11.9921 16.7867 11.6077 15.9273 11.6077 14.9774C11.6077 13.1004 13.1229 11.5852 14.9999 11.5852C15.9498 11.5852 16.7865 11.9697 17.3971 12.5803" stroke="white" stroke-width="2.5" stroke-linecap="round" stroke-linejoin="round"/>
<path d="M5.63721 24.3625L24.3624 5.63745" stroke="white" stroke-width="2.5" stroke-linecap="round" stroke-linejoin="round"/>
</svg>
